<svg xmlns="http://www.w3.org/2000/svg" xmlns:xlink="http://www.w3.org/1999/xlink" width="54" height="54" viewBox="0 0 54 54"><defs><style>.a{fill:#fff;stroke:#707070;}.b{clip-path:url(#a);}.c{fill:#0e9347;}.d{fill:#0d8944;}.e{fill:#3bb54a;}.f{fill:#89c763;}.g{fill:#ffca5d;}.h{fill:#f6b545;}.i{fill:#ffcb5b;}.j{fill:#ffe27a;}.k{fill:#f19920;}.l{fill:#e78825;}</style><clipPath id="a"><rect class="a" width="54" height="54" transform="translate(1162 139)"/></clipPath></defs><g class="b" transform="translate(-1162 -139)"><g transform="translate(1162 139)"><path class="c" d="M51.545,34.364H2.455A2.462,2.462,0,0,1,0,31.909v-27A2.462,2.462,0,0,1,2.455,2.454H51.545A2.462,2.462,0,0,1,54,4.909v27A2.462,2.462,0,0,1,51.545,34.364Z"/><path class="d" d="M45.409,24.545A8.214,8.214,0,0,0,38.536,28.1,9.154,9.154,0,0,0,34.364,27,8.587,8.587,0,0,0,25.9,34.364h25.65A2.5,2.5,0,0,0,54,32.277,8.742,8.742,0,0,0,45.409,24.545Z"/><path class="e" d="M46.636,31.909H7.364A4.923,4.923,0,0,0,2.455,27V9.818A4.923,4.923,0,0,0,7.364,4.909H46.636a4.923,4.923,0,0,0,4.909,4.909V27A4.923,4.923,0,0,0,46.636,31.909Z"/><path class="c" d="M45.409,24.545A8.214,8.214,0,0,0,38.536,28.1,9.154,9.154,0,0,0,34.364,27a8.431,8.431,0,0,0-7.732,4.909h20A4.9,4.9,0,0,1,51.423,27,8.872,8.872,0,0,0,45.409,24.545Z"/><ellipse class="c" cx="9.818" cy="11.045" rx="9.818" ry="11.045" transform="translate(17.182 7.364)"/><circle class="c" cx="2.455" cy="2.455" r="2.455" transform="translate(9.818 15.954)"/><circle class="c" cx="2.455" cy="2.455" r="2.455" transform="translate(39.273 15.954)"/><path class="f" d="M28.227,17.182H25.773a1.227,1.227,0,0,1,0-2.454h3.682A1.159,1.159,0,0,0,30.682,13.5a1.159,1.159,0,0,0-1.227-1.227H28.227a1.227,1.227,0,1,0-2.454,0,3.682,3.682,0,1,0,0,7.364h2.455a1.227,1.227,0,0,1,0,2.454H24.545a1.227,1.227,0,0,0,0,2.454h1.227a1.227,1.227,0,1,0,2.454,0,3.682,3.682,0,1,0,0-7.364Z"/><circle class="g" cx="8.591" cy="8.591" r="8.591" transform="translate(23.318 27)"/><circle class="h" cx="8.591" cy="8.591" r="8.591" transform="translate(34.364 24.545)"/><path class="i" d="M42.954,24.545a8.591,8.591,0,1,0,8.591,8.591A8.538,8.538,0,0,0,42.954,24.545Zm0,14.727a6.136,6.136,0,1,1,6.136-6.136A6.077,6.077,0,0,1,42.954,39.273Z"/><path class="h" d="M42.954,41.6h0a8.435,8.435,0,0,0,8.591-8.468h-.123a1.305,1.305,0,0,0-1.227,1.1,7.42,7.42,0,0,1-2.332,4.418,6.953,6.953,0,0,1-3.8,1.841A1.1,1.1,0,0,0,42.954,41.6Z"/><path class="j" d="M42.954,24.668h0a8.435,8.435,0,0,0-8.591,8.468h.123a1.305,1.305,0,0,0,1.227-1.1,7.42,7.42,0,0,1,2.332-4.418,6.954,6.954,0,0,1,3.8-1.841A1.1,1.1,0,0,0,42.954,24.668Z"/><path class="k" d="M37.677,34a6.077,6.077,0,0,1,6.136-6.136,5.789,5.789,0,0,1,3.927,1.473,6.117,6.117,0,0,0-10.923,3.8A5.884,5.884,0,0,0,39.027,37.8,5.756,5.756,0,0,1,37.677,34Z"/><path class="i" d="M46.636,36.941a.451.451,0,0,1-.368-.123.593.593,0,0,1,0-.859,4.1,4.1,0,0,0,1.1-2.823.614.614,0,1,1,1.227,0,5.667,5.667,0,0,1-1.35,3.682A1.334,1.334,0,0,1,46.636,36.941Z"/><path class="k" d="M42.954,36.818a1.159,1.159,0,0,1-1.227-1.227V30.682a1.227,1.227,0,1,1,2.454,0v4.909A1.159,1.159,0,0,1,42.954,36.818Z"/><path class="k" d="M47.5,40.377A9.972,9.972,0,0,0,41.6,33.75,10.26,10.26,0,0,0,36.941,27a8.871,8.871,0,0,0-2.455,6.014A8.538,8.538,0,0,0,43.077,41.6,7.117,7.117,0,0,0,47.5,40.377Z"/><path class="l" d="M39.027,37.8a6.456,6.456,0,0,1-1.473-3.927,5.941,5.941,0,0,1,1.964-4.418,5.336,5.336,0,0,0-.736-.859,6.013,6.013,0,0,0-1.964,4.541A5.884,5.884,0,0,0,39.027,37.8Z"/><path class="l" d="M41.727,33.873v1.718a1.227,1.227,0,1,0,2.454,0v-.245A10.027,10.027,0,0,0,41.727,33.873Z"/><path class="h" d="M47.5,40.377a7.845,7.845,0,0,0-.982-2.332,5.939,5.939,0,0,1-3.559,1.227,6.077,6.077,0,0,1-6.136-6.136A6.013,6.013,0,0,1,38.782,28.6a7.487,7.487,0,0,0-1.964-1.473,8.871,8.871,0,0,0-2.455,6.014,8.538,8.538,0,0,0,8.591,8.591A8.228,8.228,0,0,0,47.5,40.377Z"/><path class="k" d="M47.127,39.273A8.483,8.483,0,0,1,44.059,40.5a1.305,1.305,0,0,0-1.1,1.227h0a8.23,8.23,0,0,0,4.541-1.35Z"/><path class="i" d="M36.818,27.123a8.871,8.871,0,0,0-2.455,6.014h.123a1.305,1.305,0,0,0,1.227-1.1,7.637,7.637,0,0,1,2.209-4.3A4.979,4.979,0,0,1,36.818,27.123Z"/><circle class="h" cx="8.591" cy="8.591" r="8.591" transform="translate(23.318 27)"/><path class="k" d="M30.682,41.727a8.506,8.506,0,0,0,.368,2.455h.859a8.562,8.562,0,0,0,8.223-11.046h-.859A8.538,8.538,0,0,0,30.682,41.727Z"/><path class="i" d="M31.909,27A8.591,8.591,0,1,0,40.5,35.591,8.538,8.538,0,0,0,31.909,27Zm0,14.727a6.136,6.136,0,1,1,6.136-6.136A6.077,6.077,0,0,1,31.909,41.727Z"/><path class="h" d="M31.909,44.059h0A8.435,8.435,0,0,0,40.5,35.591h-.123a1.305,1.305,0,0,0-1.227,1.1,7.42,7.42,0,0,1-2.332,4.418,6.954,6.954,0,0,1-3.8,1.841A1.1,1.1,0,0,0,31.909,44.059Z"/><path class="j" d="M31.909,27.123h0a8.435,8.435,0,0,0-8.591,8.468h.123a1.305,1.305,0,0,0,1.227-1.1A7.42,7.42,0,0,1,27,30.068a6.954,6.954,0,0,1,3.8-1.841A1.1,1.1,0,0,0,31.909,27.123Z"/><path class="k" d="M26.632,36.45a6.077,6.077,0,0,1,6.136-6.136A5.789,5.789,0,0,1,36.7,31.786a6.117,6.117,0,0,0-10.923,3.8,5.884,5.884,0,0,0,2.209,4.664A5.756,5.756,0,0,1,26.632,36.45Z"/><path class="i" d="M35.591,39.4a.451.451,0,0,1-.368-.123.593.593,0,0,1,0-.859,4.1,4.1,0,0,0,1.1-2.823.614.614,0,0,1,1.227,0,5.667,5.667,0,0,1-1.35,3.682A1.334,1.334,0,0,1,35.591,39.4Z"/><path class="k" d="M31.909,39.273a1.159,1.159,0,0,1-1.227-1.227V33.136a1.227,1.227,0,0,1,2.454,0v4.909A1.159,1.159,0,0,1,31.909,39.273Z"/><path class="h" d="M37.555,33.259a7.177,7.177,0,0,1,.491,2.332,6.077,6.077,0,0,1-6.136,6.136,4.173,4.173,0,0,1-1.227-.123v.123a8.506,8.506,0,0,0,.368,2.455h.859a8.562,8.562,0,0,0,8.223-11.046h-.859A8.114,8.114,0,0,0,37.555,33.259Z"/><circle class="h" cx="8.591" cy="8.591" r="8.591" transform="translate(29.454 34.364)"/><path class="i" d="M38.045,34.364a8.591,8.591,0,1,0,8.591,8.591A8.538,8.538,0,0,0,38.045,34.364Zm0,14.727a6.136,6.136,0,1,1,6.136-6.136A6.077,6.077,0,0,1,38.045,49.091Z"/><path class="h" d="M38.045,51.423h0a8.435,8.435,0,0,0,8.591-8.468h-.123a1.305,1.305,0,0,0-1.227,1.1,7.42,7.42,0,0,1-2.332,4.418,6.954,6.954,0,0,1-3.8,1.841A1.1,1.1,0,0,0,38.045,51.423Z"/><path class="j" d="M38.045,34.486h0a8.435,8.435,0,0,0-8.591,8.468h.123a1.305,1.305,0,0,0,1.227-1.1,7.42,7.42,0,0,1,2.332-4.418,6.954,6.954,0,0,1,3.8-1.841A1.1,1.1,0,0,0,38.045,34.486Z"/><path class="k" d="M32.768,43.814A6.077,6.077,0,0,1,38.9,37.677a5.789,5.789,0,0,1,3.927,1.473,6.117,6.117,0,0,0-10.923,3.8,5.884,5.884,0,0,0,2.209,4.664A5.756,5.756,0,0,1,32.768,43.814Z"/><path class="i" d="M41.727,46.759a.451.451,0,0,1-.368-.123.593.593,0,0,1,0-.859,4.1,4.1,0,0,0,1.1-2.823.614.614,0,1,1,1.227,0,5.667,5.667,0,0,1-1.35,3.682A1.334,1.334,0,0,1,41.727,46.759Z"/><path class="k" d="M38.045,46.636a1.159,1.159,0,0,1-1.227-1.227V40.5a1.227,1.227,0,1,1,2.454,0v4.909A1.159,1.159,0,0,1,38.045,46.636Z"/></g></g></svg>