<svg xmlns="http://www.w3.org/2000/svg" xmlns:xlink="http://www.w3.org/1999/xlink" width="17" height="17" viewBox="0 0 17 17"><defs><style>.a{fill:#1e1e1e;stroke:#8e8e8e;}.b{clip-path:url(#a);}.c{fill:#4b4b4b;}</style><clipPath id="a"><rect class="a" width="17" height="17" transform="translate(1039.23 227.588)"/></clipPath></defs><g class="b" transform="translate(-1039.23 -227.588)"><path class="c" d="M12.664,12.123v1.761h2.641v2.641h1.761V13.884h2.641V12.123H17.066V9.482H15.305v2.641M12.638,9.139a2.639,2.639,0,1,0-2.615,2.984,2.688,2.688,0,0,0,1-.2,5.2,5.2,0,0,1,1.611-2.782M10.9,13H5.621a1.76,1.76,0,0,0-1.761-1.761V7.721A1.755,1.755,0,0,0,5.621,5.961h8.8a1.76,1.76,0,0,0,1.761,1.761v.053a5.561,5.561,0,0,1,1.761.3V4.2H2.1V14.764h9.085A5.616,5.616,0,0,1,10.9,13Z" transform="translate(1036.88 225.422)"/></g></svg>